<svg width="636" height="889" viewBox="0 0 636 889" fill="none" xmlns="http://www.w3.org/2000/svg">
<path d="M0 287.148C0 128.561 128.56 0 287.147 0H363.232C513.587 0 635.473 121.886 635.473 272.24V710.03C635.473 770.509 559.859 797.896 521.13 751.445C493.985 718.889 443.385 720.811 418.788 755.333L399.267 782.731C362.679 834.083 286.134 833.302 250.601 781.215L237.35 761.789C211.257 723.539 156.375 719.481 124.939 753.475C80.4343 801.603 0 770.113 0 704.562V287.148Z" fill="white"/>
<path d="M0 287.148C0 128.561 128.56 0 287.147 0H363.232C513.587 0 635.473 121.886 635.473 272.24V710.03C635.473 770.509 559.859 797.896 521.13 751.445C493.985 718.889 443.385 720.811 418.788 755.333L399.267 782.731C362.679 834.083 286.134 833.302 250.601 781.215L237.35 761.789C211.257 723.539 156.375 719.481 124.939 753.475C80.4343 801.603 0 770.113 0 704.562V287.148Z" fill="white"/>
<ellipse cx="110.4" cy="355.434" rx="56.5463" ry="80.7804" fill="black"/>
<ellipse cx="282.732" cy="355.434" rx="56.5463" ry="80.7804" fill="black"/>
<path d="M182.368 602.365C182.764 602.794 183.442 602.794 183.837 602.365L212.661 571.163C215.619 567.961 213.348 562.77 208.988 562.77H157.218C152.858 562.77 150.587 567.961 153.545 571.163L182.368 602.365Z" fill="black"/>
<path d="M182.188 583.685C182.54 582.891 183.666 582.891 184.017 583.685L216.06 656.067C218.882 662.443 217.251 669.913 212.026 674.531L193.699 690.731C187.648 696.08 178.558 696.08 172.506 690.731L154.18 674.531C148.955 669.913 147.323 662.443 150.146 656.066L182.188 583.685Z" fill="black"/>
<path d="M339.277 560.922C339.277 551.533 346.889 543.922 356.277 543.922H602.316C611.705 543.922 619.316 551.533 619.316 560.922V683.097C619.316 692.486 611.705 700.097 602.316 700.097H356.277C346.888 700.097 339.277 692.486 339.277 683.097V560.922Z" fill="black"/>
<path d="M333.893 576.233L448.748 633.642C471.357 644.943 498.007 644.743 520.444 633.105L630.088 576.233" stroke="white" stroke-width="23"/>
<path d="M549.307 549.307V492.068C549.307 490.963 548.411 490.068 547.307 490.068H411.287C410.183 490.068 409.287 490.963 409.287 492.068V549.307" stroke="black" stroke-width="28"/>
</svg>
